<?xml version="1.0" standalone="no"?>
<!DOCTYPE svg PUBLIC "-//W3C//DTD SVG 1.1//EN" "http://www.w3.org/Graphics/SVG/1.1/DTD/svg11.dtd">
<svg xmlns="http://www.w3.org/2000/svg" id="Layer_1" data-name="Layer 1" viewBox="0 0 24.59 37.04" width="24.59000015258789" height="37.040000915527344"><defs><style>.cls-1{fill:#ef517e;}</style></defs><polygon class="cls-1" points="12.32 37.04 20.8 17.41 3.85 17.41 12.32 37.04"/><path class="cls-1" d="M22.38,10.17c0-.2,0-.41,0-.64A9.82,9.82,0,0,0,12.32,0,9.82,9.82,0,0,0,2.24,9.53q0,.33,0,.63a3,3,0,1,0,2.56,5.18,3,3,0,0,0,3.73,0,3,3,0,0,0,3.74,0,3,3,0,0,0,3.73,0,3,3,0,0,0,3.74,0,2.93,2.93,0,0,0,1.86.66,3,3,0,0,0,.75-5.83Z"/></svg>