<svg xmlns="http://www.w3.org/2000/svg" viewBox="0 0 128 128" fill="none">
  <defs>
    <linearGradient id="g" x1="64" y1="34" x2="64" y2="120" gradientUnits="userSpaceOnUse">
      <stop stop-color="#F7C98A"/>
      <stop offset="1" stop-color="#E9A75D"/>
    </linearGradient>
  </defs>
  <!-- scoop -->
  <path d="M36 58c0-15.46 12.54-28 28-28s28 12.54 28 28c0 4.42-1.03 8.6-2.87 12.31H38.87A27.85 27.85 0 0 1 36 58Z" fill="#F5E7FF"/>
  <path d="M38.87 70.31h50.26c-4.92 9.58-14.92 16.13-25.13 16.13-10.21 0-20.21-6.55-25.13-16.13Z" fill="#EAD6FF"/>
  <!-- cone -->
  <path d="M48 74h32l-16 48-16-48Z" fill="url(#g)"/>
  <path d="M52 86h24" stroke="#D58E44" stroke-width="3" stroke-linecap="round" opacity="0.8"/>
  <path d="M55 96h18" stroke="#D58E44" stroke-width="3" stroke-linecap="round" opacity="0.7"/>
  <path d="M58 106h12" stroke="#D58E44" stroke-width="3" stroke-linecap="round" opacity="0.6"/>
  <!-- outline -->
  <path d="M36 58c0-15.46 12.54-28 28-28s28 12.54 28 28c0 4.42-1.03 8.6-2.87 12.31H38.87A27.85 27.85 0 0 1 36 58Z" stroke="#3F2B4F" stroke-width="3" stroke-linejoin="round"/>
  <path d="M48 74h32l-16 48-16-48Z" stroke="#3F2B4F" stroke-width="3" stroke-linejoin="round"/>
</svg>
